<?xml version="1.0" encoding="utf-8"?>
<!-- Generator: Adobe Illustrator 24.0.1, SVG Export Plug-In . SVG Version: 6.00 Build 0)  -->
<svg version="1.1" id="Слой_1" xmlns="http://www.w3.org/2000/svg" xmlns:xlink="http://www.w3.org/1999/xlink" x="0px" y="0px"
	 viewBox="0 0 25 32" style="enable-background:new 0 0 25 32;" xml:space="preserve">
<style type="text/css">
	.st0{fill:#1D96BA;}
	.st1{fill:#5CBBD5;}
	.st2{fill:#FFFFFF;}
	.st3{fill:#58A6DC;}
	.st4{fill:#8FC4EC;}
</style>
<image style="overflow:visible;" width="275" height="319" xlink:href="4ac88b66ac5e9771.png"  transform="matrix(1 0 0 1 61.5281 -21.3371)">
</image>
<path class="st0" d="M-21.5,4.6v-7.1c-6.1,0-12.2,0-18.4,0v32h25c0-8.3,0-16.6,0-24.9H-21.5z"/>
<path class="st1" d="M-21.5-2.5c2.2,2.4,4.4,4.7,6.6,7.1c-2.2,0-4.4,0-6.6,0C-21.5,2.2-21.5-0.1-21.5-2.5z"/>
<g>
	<path class="st2" d="M-34.6,15.1c0-0.6,0-1.2,0-1.6h0.8l0,0.9h0c0.4-0.6,1-1,1.8-1c1.2,0,2.1,1,2.1,2.6c0,1.8-1.1,2.7-2.3,2.7
		c-0.7,0-1.3-0.3-1.6-0.8h0v2.7h-0.9V15.1z M-33.7,16.4c0,0.1,0,0.3,0,0.4c0.2,0.6,0.7,1.1,1.4,1.1c1,0,1.5-0.8,1.5-2
		c0-1-0.5-1.9-1.5-1.9c-0.6,0-1.2,0.4-1.4,1.1c0,0.1-0.1,0.3-0.1,0.4V16.4z"/>
	<path class="st2" d="M-24.3,11.1v6.1c0,0.4,0,1,0,1.3h-0.8l0-0.9h0c-0.3,0.6-0.9,1-1.7,1c-1.2,0-2.2-1-2.2-2.6c0-1.7,1-2.7,2.3-2.7
		c0.8,0,1.3,0.4,1.5,0.8h0v-3H-24.3z M-25.2,15.5c0-0.1,0-0.3,0-0.4c-0.1-0.6-0.6-1.1-1.3-1.1c-1,0-1.5,0.8-1.5,2
		c0,1,0.5,1.9,1.5,1.9c0.6,0,1.2-0.4,1.3-1.1c0-0.1,0-0.3,0-0.4V15.5z"/>
	<path class="st2" d="M-22.7,18.5v-4.4h-0.7v-0.7h0.7v-0.2c0-0.7,0.2-1.4,0.6-1.8c0.3-0.3,0.8-0.5,1.2-0.5c0.3,0,0.6,0.1,0.8,0.1
		l-0.1,0.7c-0.1-0.1-0.3-0.1-0.6-0.1c-0.8,0-1,0.7-1,1.5v0.3h1.2v0.7h-1.2v4.4H-22.7z"/>
</g>
<path class="st3" d="M18.4,7.1V0C12.2,0,6.1,0,0,0v32h25c0-8.3,0-16.6,0-24.9H18.4z"/>
<path class="st4" d="M18.4,0c2.2,2.4,4.4,4.7,6.6,7.1c-2.2,0-4.4,0-6.6,0C18.4,4.7,18.4,2.3,18.4,0z"/>
<g>
	<path class="st2" d="M8.3,13.6v6.1c0,0.4,0,1,0,1.3H7.5l0-0.9h0c-0.3,0.6-0.9,1-1.7,1c-1.2,0-2.2-1-2.2-2.6c0-1.7,1-2.7,2.3-2.7
		c0.8,0,1.3,0.4,1.5,0.8h0v-3H8.3z M7.3,18c0-0.1,0-0.3,0-0.4C7.2,17,6.7,16.5,6,16.5c-0.9,0-1.5,0.8-1.5,2c0,1,0.5,1.9,1.5,1.9
		c0.6,0,1.2-0.4,1.3-1.1c0-0.1,0-0.3,0-0.4V18z"/>
	<path class="st2" d="M10.2,15.9l0.7,2.6c0.1,0.6,0.3,1.1,0.4,1.6h0c0.1-0.5,0.3-1.1,0.4-1.6l0.8-2.6h0.8l0.8,2.5
		c0.2,0.6,0.3,1.1,0.4,1.6h0c0.1-0.5,0.2-1,0.4-1.6l0.7-2.5h0.9L14.9,21h-0.8l-0.8-2.4c-0.2-0.6-0.3-1.1-0.4-1.7h0
		c-0.1,0.6-0.3,1.1-0.5,1.7L11.6,21h-0.8l-1.5-5.1H10.2z"/>
	<path class="st2" d="M21.7,15.9c0,0.4,0,0.8,0,1.4v2.9c0,1.2-0.2,1.9-0.7,2.3c-0.5,0.5-1.2,0.6-1.8,0.6c-0.6,0-1.3-0.1-1.7-0.4
		l0.2-0.7c0.3,0.2,0.9,0.4,1.5,0.4c0.9,0,1.6-0.5,1.6-1.8v-0.6h0c-0.3,0.5-0.8,0.8-1.6,0.8c-1.3,0-2.2-1.1-2.2-2.5
		c0-1.7,1.1-2.7,2.3-2.7c0.9,0,1.4,0.5,1.6,0.9h0l0-0.8H21.7z M20.8,17.9c0-0.2,0-0.3-0.1-0.4c-0.2-0.5-0.6-1-1.3-1
		c-0.9,0-1.5,0.7-1.5,1.9c0,1,0.5,1.8,1.5,1.8c0.6,0,1.1-0.4,1.3-0.9c0.1-0.2,0.1-0.3,0.1-0.5V17.9z"/>
</g>
</svg>
