<?xml version="1.0" encoding="utf-8"?>
<!-- Generator: Adobe Illustrator 24.0.1, SVG Export Plug-In . SVG Version: 6.00 Build 0)  -->
<svg version="1.1" id="Слой_1" xmlns="http://www.w3.org/2000/svg" xmlns:xlink="http://www.w3.org/1999/xlink" x="0px" y="0px"
	 viewBox="0 0 25 32" style="enable-background:new 0 0 25 32;" xml:space="preserve">
<style type="text/css">
	.st0{fill:#1D96BA;}
	.st1{fill:#5CBBD5;}
	.st2{fill:#FFFFFF;}
</style>
<image style="overflow:visible;" width="275" height="319" xlink:href="4ac88b66ac5e9771.png"  transform="matrix(1 0 0 1 61.5281 -21.3371)">
</image>
<path class="st0" d="M18.4,7.1V0C12.2,0,6.1,0,0,0v32h25c0-8.3,0-16.6,0-24.9H18.4z"/>
<path class="st1" d="M18.4,0c2.2,2.4,4.4,4.7,6.6,7.1c-2.2,0-4.4,0-6.6,0C18.4,4.7,18.4,2.4,18.4,0z"/>
<g>
	<path class="st2" d="M5.3,17.6c0-0.6,0-1.2,0-1.6h0.8l0,0.9h0c0.4-0.6,1-1,1.8-1c1.2,0,2.1,1,2.1,2.6c0,1.8-1.1,2.7-2.3,2.7
		c-0.7,0-1.3-0.3-1.6-0.8h0v2.7H5.3V17.6z M6.2,19c0,0.1,0,0.3,0,0.4C6.4,20,7,20.4,7.6,20.4c1,0,1.5-0.8,1.5-2c0-1-0.5-1.9-1.5-1.9
		c-0.6,0-1.2,0.4-1.4,1.1c0,0.1-0.1,0.3-0.1,0.4V19z"/>
	<path class="st2" d="M15.6,13.6v6.1c0,0.4,0,1,0,1.3h-0.8l0-0.9h0c-0.3,0.6-0.9,1-1.7,1c-1.2,0-2.2-1-2.2-2.6c0-1.7,1-2.7,2.3-2.7
		c0.8,0,1.3,0.4,1.5,0.8h0v-3H15.6z M14.7,18c0-0.1,0-0.3,0-0.4c-0.1-0.6-0.6-1.1-1.3-1.1c-1,0-1.5,0.8-1.5,2c0,1,0.5,1.9,1.5,1.9
		c0.6,0,1.2-0.4,1.3-1.1c0-0.1,0-0.3,0-0.4V18z"/>
	<path class="st2" d="M17.2,21v-4.4h-0.7V16h0.7v-0.2c0-0.7,0.2-1.4,0.6-1.8c0.3-0.3,0.8-0.5,1.2-0.5c0.3,0,0.6,0.1,0.8,0.1
		l-0.1,0.7c-0.1-0.1-0.3-0.1-0.6-0.1c-0.8,0-1,0.7-1,1.5V16h1.2v0.7h-1.2V21H17.2z"/>
</g>
</svg>
