<svg xmlns="http://www.w3.org/2000/svg" width="25" height="32" viewBox="0 0 25 32">
    <g fill="none" fill-rule="evenodd">
        <path fill="#1D2E39" d="M25 32H0V0h18l7 7v25z"/>
        <path fill="#FFF" d="M12.51 7l2.71 2.725-.774.778-1.447-1.454L13 14l4 2v4.532l.34-.34 3.592 3.095-.006-2.098 1.098.003.008 2.744.003 1.099-3.843-.01-.003-1.099 1.817.005-3.257-2.807L13 23h-1l-3.782-1.891-3.272 2.823 1.816-.006-.003 1.098-2.745.008-1.098.003.01-3.843 1.099-.003-.006 2.1 3.592-3.096.388.388L8 16l4-2-.001-4.93-1.425 1.433-.774-.778 1.935-1.946L12.51 7zm-3.368 9.571L9 16.649v3.701L12 22v-4l-2.858-1.429zm6.716 0L13 18v4l3-1.65v-3.7l-.142-.079zM13 15h-1l-1.798.988L12 17h1l1.797-1.012L13 15z"/>
        <path fill="#816984" d="M18 0L25 7 18 7z"/>
    </g>
</svg>
